<svg xmlns="http://www.w3.org/2000/svg" width="39.995" height="40" viewBox="0 0 39.995 40">
    <g id="Bitcoin" transform="translate(0.002 -0.002)">
        <path id="Path_57" data-name="Path 57" d="M39.394,24.841A19.993,19.993,0,1,1,24.831.6a19.995,19.995,0,0,1,14.564,24.24Z" transform="translate(0 0)" fill="#f7931a"/>
        <path id="Path_58" data-name="Path 58" d="M34.653,21.335c.4-2.661-1.628-4.092-4.4-5.046l.9-3.6-2.194-.547-.875,3.51c-.577-.144-1.169-.279-1.758-.414l.881-3.533-2.193-.547-.9,3.6c-.477-.109-.946-.216-1.4-.329l0-.011-3.026-.756L19.105,16s1.628.373,1.594.4a1.168,1.168,0,0,1,1.022,1.276L20.7,21.784a1.818,1.818,0,0,1,.228.073l-.232-.057-1.435,5.753a.8.8,0,0,1-1.006.521c.022.032-1.595-.4-1.595-.4l-1.089,2.512,2.856.712c.531.133,1.052.272,1.564.4l-.908,3.646,2.192.547.9-3.607c.6.162,1.18.312,1.749.454l-.9,3.591,2.194.547.908-3.639c3.742.708,6.556.422,7.74-2.962.954-2.725-.048-4.3-2.016-5.322a3.5,3.5,0,0,0,2.8-3.222Zm-5.014,7.031c-.678,2.725-5.266,1.252-6.754.882l1.2-4.831C25.578,24.788,30.348,25.523,29.639,28.365Zm.679-7.07c-.619,2.479-4.437,1.219-5.676.911l1.092-4.381C26.973,18.134,30.962,18.71,30.318,21.3Z" transform="translate(-5.839 -4.182)" fill="#fff"/>
    </g>
</svg>
