<?xml version="1.0" encoding="iso-8859-1"?>
<!-- Generator: Adobe Illustrator 19.0.0, SVG Export Plug-In . SVG Version: 6.00 Build 0)  -->
<svg version="1.1" id="Layer_1" xmlns="http://www.w3.org/2000/svg" xmlns:xlink="http://www.w3.org/1999/xlink" x="0px" y="0px"
	 viewBox="0 0 512 512" style="enable-background:new 0 0 512 512;" xml:space="preserve">
<circle style="fill:#263740;" cx="256" cy="256" r="256"/>
<path style="fill:#FFD464;" d="M243.808,345.432v-74.348c-23.188-6.624-40.192-16.648-51.016-30.084
	c-10.824-13.424-16.236-29.724-16.236-48.888c0-19.4,6.12-35.696,18.364-48.892c12.244-13.188,28.54-20.788,48.888-22.796v-17.572
	h25.732v17.572c18.808,2.248,33.772,8.664,44.892,19.252c11.12,10.584,18.22,24.752,21.296,42.496l-44.896,5.856
	c-2.724-13.952-9.82-23.42-21.292-28.392v69.384c28.392,7.692,47.736,17.656,58.024,29.904C337.856,271.172,343,286.868,343,306.032
	c0,21.416-6.476,39.452-19.428,54.12s-30.968,23.66-54.036,26.972v33.18h-25.732v-32.292c-20.468-2.484-37.084-10.112-49.864-22.892
	c-12.776-12.776-20.936-30.816-24.488-54.12l46.312-4.968c1.892,9.464,5.44,17.628,10.648,24.488
	C231.62,337.392,237.42,342.36,243.808,345.432z M243.808,159.116c-6.98,2.368-12.54,6.388-16.68,12.068
	c-4.144,5.676-6.212,11.948-6.212,18.808c0,6.268,1.892,12.092,5.676,17.476c3.784,5.388,9.52,9.736,17.212,13.044L243.808,159.116
	L243.808,159.116z M269.536,347.916c8.872-1.648,16.084-5.76,21.648-12.328c5.56-6.568,8.34-14.284,8.34-23.156
	c0-7.92-2.336-14.752-7.008-20.496c-4.672-5.74-12.332-10.14-22.98-13.224V347.916L269.536,347.916z"/>
<g>
</g>
<g>
</g>
<g>
</g>
<g>
</g>
<g>
</g>
<g>
</g>
<g>
</g>
<g>
</g>
<g>
</g>
<g>
</g>
<g>
</g>
<g>
</g>
<g>
</g>
<g>
</g>
<g>
</g>
</svg>
