<svg xmlns="http://www.w3.org/2000/svg" xmlns:xlink="http://www.w3.org/1999/xlink" width="512" height="511.14" viewBox="0 0 512 511.14">
    <defs>
        <linearGradient id="linear-gradient" x1="0.5" x2="0.5" y2="1" gradientUnits="objectBoundingBox">
            <stop offset="0" stop-color="#2524ff"/>
            <stop offset="1" stop-color="#a239ff"/>
        </linearGradient>
    </defs>
    <path id="puzzle-piece-solid" d="M512,288c0,35.35-21.49,64-48,64-32.43,0-31.72-32-55.64-32A24.36,24.36,0,0,0,384,344.4V480a32,32,0,0,1-32,32H280.36A24.36,24.36,0,0,1,256,487.6c0-24.5,32-23.2,32-55.6,0-26.51-28.65-48-64-48s-64,21.49-64,48c0,32.43,32,31.72,32,55.64A24.36,24.36,0,0,1,167.6,512H32A32,32,0,0,1,0,480V344.4A24.367,24.367,0,0,1,24.36,320C48.05,320,47.6,352,80,352c26.5,0,48-28.7,48-64s-21.5-64.9-48-64.9c-32.43,0-31.72,32-55.64,32C10.91,255.1,0,245.1,0,231.6V159.96c0-17.67,14.33-31.1,32-31.1H167.6C181.1,127.1,192,117.1,192,103.6c0-23.69-32-23.24-32-55.64,0-26.51,28.65-47.1,64-47.1s64,21.49,64,47.1c0,32.43-32,31.72-32,55.64a24.365,24.365,0,0,0,24.36,24.36H352c17.67,0,32,14.33,32,31.1V230.7a24.365,24.365,0,0,0,24.36,24.36c23.69,0,23.24-32,55.64-32C490.5,223.1,512,252.7,512,288Z" transform="translate(0 -0.86)" fill="url(#linear-gradient)"/>
</svg>
